<svg t="1538707520921" viewBox="0 0 1024 1024" version="1.1" xmlns="http://www.w3.org/2000/svg" p-id="1927" xmlns:xlink="http://www.w3.org/1999/xlink" width="18" height="18">
  <path d="M53.76 107.52H970.752c29.696 0 53.76 24.064 53.76 53.76S1000.448 215.04 970.752 215.04h-916.992c-29.696 0-53.76-24.064-53.76-53.76s24.064-53.76 53.76-53.76zM53.76 458.24H970.752c29.696 0 53.76 24.064 53.76 53.76s-24.064 53.76-53.76 53.76h-916.992c-29.696 0-53.76-24.064-53.76-53.76s24.064-53.76 53.76-53.76zM53.76 808.448H970.752c29.696 0 53.76 24.064 53.76 53.76s-24.064 53.76-53.76 53.76h-916.992c-29.696 0-53.76-24.064-53.76-53.76s24.064-53.76 53.76-53.76z" p-id="1928"/>
</svg>