<svg t="1551860220306" class="icon" style="" viewBox="0 0 1024 1024" version="1.1" xmlns="http://www.w3.org/2000/svg" p-id="2085" xmlns:xlink="http://www.w3.org/1999/xlink" width="200" height="200">
  <path d="M109.714 292.571h804.572c21.943 0 36.571-21.942 36.571-43.885 0-14.629-14.628-29.257-36.571-29.257H109.714c-21.943 0-36.571 14.628-36.571 36.571 0 14.629 14.628 36.571 36.571 36.571zM914.286 512H109.714c-21.943 0-36.571 14.629-36.571 36.571 0 14.629 14.628 36.572 36.571 36.572h804.572c21.943 0 36.571-21.943 36.571-43.886 0-14.628-14.628-29.257-36.571-29.257z m0 292.571H109.714c-21.943 0-36.571 14.629-36.571 36.572s14.628 36.571 36.571 36.571h804.572c21.943 0 36.571-21.943 36.571-36.571 0-21.943-14.628-36.572-36.571-36.572z" p-id="2086"/>
</svg>